<svg xmlns="http://www.w3.org/2000/svg" width="114" height="114" viewBox="0 0 114 114">
  <g id="_01_feel" data-name="01_feel" transform="translate(-848 -97)">
    <rect id="Rectangle_17" data-name="Rectangle 17" width="114" height="114" transform="translate(848 97)" fill="none"/>
    <g id="Group_26" data-name="Group 26" transform="translate(-347.928 -1515.88)">
      <path id="Path_157" data-name="Path 157" d="M1304.508,1665.468l.086-39.986-19.956-3.574-68.757,21.905,19.409,4.883a1,1,0,1,1-.488,1.939l-22.815-5.739a1,1,0,0,1-.059-1.923l72.338-23.047a1.042,1.042,0,0,1,.48-.031l21.026,3.766a1,1,0,0,1,.824.986l-.088,40.822"/>
      <path id="Path_158" data-name="Path 158" d="M1305.509,1666.467a.977.977,0,0,1-.232-.027l-37.883-9a1,1,0,1,1,.462-1.945l37.883,9a1,1,0,0,1-.23,1.972Z"/>
      <path id="Path_159" data-name="Path 159" d="M1247.576,1646.142a1,1,0,0,1-.229-1.973l39.255-9.276a1.008,1.008,0,0,1,1.19.7c.042.144,1,3.564-1.135,5.856a1,1,0,1,1-1.462-1.365,3.926,3.926,0,0,0,.827-2.994l-38.215,9.03A1.078,1.078,0,0,1,1247.576,1646.142Z"/>
      <path id="Path_160" data-name="Path 160" d="M1280.429,1649.562a1,1,0,0,1-.282-1.959c3.689-1.086,4.26-3.715,4.268-5.206l-29.966,7.028a1,1,0,1,1-.457-1.947l31.085-7.29a1,1,0,0,1,1.207.768c.476,2.256-.076,6.949-5.572,8.565A1,1,0,0,1,1280.429,1649.562Z"/>
      <path id="Path_161" data-name="Path 161" d="M1247.249,1709.773a.97.97,0,0,1-.334-.058l-23.607-8.362a1,1,0,0,1-.568-1.372l9.26-19.461c-.112-4.487-.6-34.264,6.145-38.116,3.778-2.159,11.369-3.874,20.978-6.044,5.58-1.261,11.9-2.688,18.537-4.441a1,1,0,0,1,1.2.649c.044.131,1.057,3.237-.679,5.306a1,1,0,1,1-1.532-1.285,3.262,3.262,0,0,0,.505-2.471c-6.3,1.641-12.282,2.993-17.594,4.193-9.447,2.133-16.909,3.819-20.427,5.829-4.4,2.513-5.481,23.762-5.132,36.566a1,1,0,0,1-.1.457l-8.887,18.676,21.836,7.735c2.171-3.172,11.806-17.316,13.732-21.168,1.759-3.518,4.551-22.759,5.478-29.876a1,1,0,0,1,.785-.85c.065-.013,6.563-1.4,9.737-2.985,1.759-.879,2.583-2.985,2.952-4.425l-17.786,4.748a1,1,0,1,1-.516-1.931l19.317-5.158a1,1,0,0,1,1.254,1.055c-.021.229-.542,5.608-4.326,7.5a51.14,51.14,0,0,1-9.525,3c-.566,4.242-3.495,25.645-5.581,29.816-2.224,4.45-13.814,21.324-14.306,22.04A1,1,0,0,1,1247.249,1709.773Z"/>
      <path id="Path_162" data-name="Path 162" d="M1223.3,1689.532l32.628,13.664-6.455,12.49a4.665,4.665,0,0,1-5.913,2.076l-23.925-10.438a4.667,4.667,0,0,1-2.391-6.331Z" fill="#8800c2"/>
      <path id="Path_163" data-name="Path 163" d="M1306.711,1694.514l-39.728-12.132a1,1,0,1,1,.584-1.912l37.123,11.335-.2-26.219a1,1,0,0,1,.992-1.008h.008a1,1,0,0,1,1,.993Z"/>
      <path id="Path_164" data-name="Path 164" d="M1229.742,1671.039a.979.979,0,0,1-.29-.043l-18.524-5.621v-21.4a1,1,0,0,1,2,0v19.92l17.1,5.189a1,1,0,0,1-.29,1.957Z"/>
    </g>
  </g>
</svg>
