<svg xmlns="http://www.w3.org/2000/svg" width="90.179" height="92.003" viewBox="0 0 90.179 92.003">
  <g id="care" transform="translate(-777.361 -1038.708)">
    <path id="Path_186" data-name="Path 186" d="M825.714,1130.712a11.7,11.7,0,0,1-3.771-.622l-33.7-9.543a1,1,0,0,1,.545-1.924l33.752,9.559a9.815,9.815,0,0,0,7.658-.558l33.293-16.3a3.581,3.581,0,0,0,1.992-2.214,3.084,3.084,0,0,0-.71-2.521c-.779-1.26-5.468-.075-8.864,1.7l-15.969,6.564a1.009,1.009,0,0,1-.346.074l-27.89.948a1,1,0,0,1-.068-2l27.71-.942,15.72-6.457c.29-.156,9.092-4.7,11.359-1.01a4.924,4.924,0,0,1,1.008,4.089,5.532,5.532,0,0,1-3.043,3.555l-33.293,16.3A11.712,11.712,0,0,1,825.714,1130.712Z"/>
    <path id="Path_187" data-name="Path 187" d="M841.12,1111.359a1,1,0,0,1-1-1,3.519,3.519,0,0,0-3.514-3.515h-15.9a1,1,0,0,1-1-1,7.645,7.645,0,0,0-7.636-7.637H795.06a1,1,0,0,1,0-2h17.009a9.65,9.65,0,0,1,9.585,8.637h14.952a5.52,5.52,0,0,1,5.514,5.515A1,1,0,0,1,841.12,1111.359Z"/>
    <path id="Rectangle_6" data-name="Rectangle 6" d="M4.212,0h7.509a0,0,0,0,1,0,0V33.815a0,0,0,0,1,0,0H4.212A4.212,4.212,0,0,1,0,29.6V4.212A4.212,4.212,0,0,1,4.212,0Z" transform="translate(778.363 1092.213)" fill="#8700c1"/>
    <path id="Path_188" data-name="Path 188" d="M781.694,1065.4a3.507,3.507,0,0,1-3.215-1.44,4.915,4.915,0,0,1-1.008-4.089,5.53,5.53,0,0,1,3.041-3.554l33.295-16.3a11.763,11.763,0,0,1,9.151-.68l33.7,9.544a1,1,0,1,1-.545,1.924l-33.751-9.559a9.805,9.805,0,0,0-7.658.557l-33.294,16.3a3.571,3.571,0,0,0-1.991,2.214,3.072,3.072,0,0,0,.71,2.52c.779,1.263,5.467.075,8.864-1.7l15.968-6.563a1.008,1.008,0,0,1,.346-.075l27.89-.948a1,1,0,1,1,.069,2l-27.711.943-15.719,6.457C789.631,1063.057,785.1,1065.394,781.694,1065.4Z"/>
    <path id="Path_189" data-name="Path 189" d="M849.841,1073.214H832.832a9.652,9.652,0,0,1-9.586-8.638H808.295a5.52,5.52,0,0,1-5.515-5.514,1,1,0,0,1,2,0,3.519,3.519,0,0,0,3.515,3.514h15.9a1,1,0,0,1,1,1,7.645,7.645,0,0,0,7.637,7.638h17.009a1,1,0,0,1,0,2Z"/>
    <path id="Rectangle_7" data-name="Rectangle 7" d="M4.212,0h7.509a0,0,0,0,1,0,0V33.815a0,0,0,0,1,0,0H4.212A4.212,4.212,0,0,1,0,29.6V4.212A4.212,4.212,0,0,1,4.212,0Z" transform="translate(866.538 1077.207) rotate(180)" fill="#8700c1"/>
  </g>
</svg>
