<?xml version="1.0" encoding="utf-8"?>
<!-- Generator: Adobe Illustrator 19.1.0, SVG Export Plug-In . SVG Version: 6.00 Build 0)  -->
<svg version="1.1" id="Layer_1" xmlns="http://www.w3.org/2000/svg" xmlns:xlink="http://www.w3.org/1999/xlink" x="0px" y="0px"
	 viewBox="0 0 72 91" style="enable-background:new 0 0 72 91;" xml:space="preserve">
<style type="text/css">
	.st0{fill:#FED8E5;}
	.st1{fill:#F50058;}
</style>
<g>
	<g>
		<polygon class="st0" points="66.1,73.6 66.1,4.6 0.7,4.6 0.7,90.1 49.6,90.1 49.6,73.6 		"/>
	</g>
	<g>
		<path class="st1" d="M54.1,88.5H5.2c-0.6,0-1-0.4-1-1V2c0-0.6,0.4-1,1-1h65.5c0.6,0,1,0.4,1,1v69c0,0.6-0.4,1-1,1H55.1v15.6
			C55.1,88.1,54.7,88.5,54.1,88.5z M6.2,86.5h46.9V71c0-0.6,0.4-1,1-1h15.6V3H6.2V86.5z"/>
	</g>
	<g>
		<path class="st1" d="M54.1,88.5c-0.1,0-0.3,0-0.4-0.1c-0.4-0.2-0.6-0.5-0.6-0.9V71c0-0.6,0.4-1,1-1h16.6c0.4,0,0.8,0.2,0.9,0.6
			c0.2,0.4,0.1,0.8-0.2,1.1L54.8,88.2C54.6,88.4,54.4,88.5,54.1,88.5z M55.1,72v13.1L68.2,72H55.1z"/>
	</g>
	<g>
		<path class="st1" d="M56.3,23.1H19.2c-0.6,0-1-0.4-1-1s0.4-1,1-1h37.1c0.6,0,1,0.4,1,1S56.9,23.1,56.3,23.1z"/>
	</g>
	<g>
		<path class="st1" d="M56.3,35.7H19.2c-0.6,0-1-0.4-1-1s0.4-1,1-1h37.1c0.6,0,1,0.4,1,1S56.9,35.7,56.3,35.7z"/>
	</g>
	<g>
		<path class="st1" d="M56.3,48.3H19.2c-0.6,0-1-0.4-1-1s0.4-1,1-1h37.1c0.6,0,1,0.4,1,1S56.9,48.3,56.3,48.3z"/>
	</g>
	<g>
		<path class="st1" d="M25.8,78.9c-4.7,0-8.6-3.9-8.6-8.6s3.9-8.6,8.6-8.6s8.6,3.9,8.6,8.6S30.5,78.9,25.8,78.9z M25.8,63.7
			c-3.6,0-6.6,3-6.6,6.6c0,3.6,3,6.6,6.6,6.6c3.6,0,6.6-3,6.6-6.6C32.4,66.6,29.4,63.7,25.8,63.7z"/>
	</g>
</g>
</svg>
