<?xml version="1.0" encoding="utf-8"?>
<!-- Generator: Adobe Illustrator 19.1.0, SVG Export Plug-In . SVG Version: 6.00 Build 0)  -->
<svg version="1.1" id="Layer_1" xmlns="http://www.w3.org/2000/svg" xmlns:xlink="http://www.w3.org/1999/xlink" x="0px" y="0px"
	 viewBox="0 0 108 60" style="enable-background:new 0 0 108 60;" xml:space="preserve">
<style type="text/css">
	.st0{fill:#FED8E5;}
	.st1{fill:#F50058;}
</style>
<g>
	<g>
		<rect x="0.6" y="5.1" class="st0" width="102.4" height="54.3"/>
	</g>
	<g>
		<path class="st1" d="M55.2,44.8c-8.3,0-15.1-7.3-15.1-16.4s6.8-16.4,15.1-16.4c8.3,0,15.1,7.3,15.1,16.4S63.6,44.8,55.2,44.8z
			 M55.2,14.1c-7.2,0-13.1,6.4-13.1,14.4S48,42.8,55.2,42.8c7.2,0,13.1-6.4,13.1-14.4S62.5,14.1,55.2,14.1z"/>
	</g>
	<g>
		<g>
			<path class="st1" d="M4.1,20.7c-0.6,0-1-0.4-1-1s0.4-1,1-1c8.6,0,15.6-7.7,15.6-17.1c0-0.6,0.4-1,1-1s1,0.4,1,1
				C21.6,12.1,13.8,20.7,4.1,20.7z"/>
		</g>
		<g>
			<path class="st1" d="M106.4,20.7c-9.7,0-17.6-8.6-17.6-19.1c0-0.6,0.4-1,1-1s1,0.4,1,1c0,9.4,7,17.1,15.6,17.1c0.6,0,1,0.4,1,1
				S107,20.7,106.4,20.7z"/>
		</g>
		<g>
			<path class="st1" d="M89.9,56.9c-0.6,0-1-0.4-1-1c0-10.5,7.9-19.1,17.6-19.1c0.6,0,1,0.4,1,1s-0.4,1-1,1
				c-8.6,0-15.6,7.7-15.6,17.1C90.9,56.4,90.4,56.9,89.9,56.9z"/>
		</g>
		<g>
			<path class="st1" d="M20.7,56.9c-0.6,0-1-0.4-1-1c0-9.4-7-17.1-15.6-17.1c-0.6,0-1-0.4-1-1s0.4-1,1-1c9.7,0,17.6,8.6,17.6,19.1
				C21.7,56.4,21.2,56.9,20.7,56.9z"/>
		</g>
	</g>
	<g>
		<g>
			<path class="st1" d="M25.4,36.3c-3.6,0-6.5-2.9-6.5-6.5c0-3.6,2.9-6.5,6.5-6.5c3.6,0,6.5,2.9,6.5,6.5
				C31.9,33.4,29,36.3,25.4,36.3z M25.4,25.3c-2.5,0-4.5,2-4.5,4.5c0,2.5,2,4.5,4.5,4.5c2.5,0,4.5-2,4.5-4.5
				C29.9,27.3,27.9,25.3,25.4,25.3z"/>
		</g>
		<g>
			<path class="st1" d="M85.1,36.3c-3.6,0-6.5-2.9-6.5-6.5c0-3.6,2.9-6.5,6.5-6.5c3.6,0,6.5,2.9,6.5,6.5
				C91.5,33.4,88.6,36.3,85.1,36.3z M85.1,25.3c-2.5,0-4.5,2-4.5,4.5c0,2.5,2,4.5,4.5,4.5c2.5,0,4.5-2,4.5-4.5
				C89.5,27.3,87.5,25.3,85.1,25.3z"/>
		</g>
	</g>
	<g>
		<path class="st1" d="M106.4,56.9H4.1c-0.6,0-1-0.4-1-1V1.5c0-0.6,0.4-1,1-1h102.4c0.6,0,1,0.4,1,1v54.3
			C107.4,56.4,107,56.9,106.4,56.9z M5.1,54.9h100.4V2.5H5.1V54.9z"/>
	</g>
</g>
</svg>
